<?xml version="1.0" standalone="no"?>
<!DOCTYPE svg PUBLIC "-//W3C//DTD SVG 20010904//EN"
 "http://www.w3.org/TR/2001/REC-SVG-20010904/DTD/svg10.dtd">
<svg version="1.0" xmlns="http://www.w3.org/2000/svg"
 width="320.000000pt" height="320.000000pt" viewBox="0 0 320.000000 320.000000"
 preserveAspectRatio="xMidYMid meet">

<g transform="translate(0.000000,320.000000) scale(0.100000,-0.100000)"
fill="#000000" stroke="none">
<path d="M585 2150 c-173 -35 -326 -161 -386 -318 -74 -194 -34 -391 108 -543
101 -107 222 -159 367 -159 100 1 153 12 236 53 81 40 184 141 223 218 77 154
76 340 -1 483 -37 68 -130 166 -189 198 l-49 27 -40 -18 c-22 -10 -54 -35 -71
-56 -32 -38 -60 -122 -46 -135 4 -4 30 -15 58 -25 63 -23 136 -96 153 -151 71
-239 -157 -445 -382 -345 -142 62 -212 246 -156 410 56 168 186 278 370 317
41 8 76 17 78 19 2 2 -28 10 -67 19 -74 17 -141 19 -206 6z"/>
<path d="M2224 2146 c-17 -13 -20 -31 -24 -158 l-5 -143 -32 -15 c-42 -20 -42
-30 2 -30 l35 0 0 -130 c0 -174 -4 -170 168 -170 177 0 172 -4 172 156 0 102
-3 124 -15 124 -11 0 -15 -16 -17 -67 l-3 -68 -132 -3 -133 -3 0 84 0 84 40
18 c22 10 40 19 40 21 0 1 -13 16 -29 32 -21 21 -33 26 -40 19 -8 -8 -11 22
-11 101 l0 113 133 -3 132 -3 5 -44 c8 -70 30 -65 30 8 0 85 -10 91 -170 91
-93 0 -131 -4 -146 -14z m176 -567 c0 -27 -3 -30 -27 -27 -22 2 -29 9 -31 31
-3 24 0 27 27 27 28 0 31 -3 31 -31z m-90 1 c0 -11 -6 -20 -14 -20 -18 0 -29
16 -21 30 11 18 35 11 35 -10z m160 0 c0 -11 -7 -20 -15 -20 -8 0 -15 9 -15
20 0 11 7 20 15 20 8 0 15 -9 15 -20z"/>
<path d="M1758 1338 c-28 -10 -28 -10 -28 -104 l0 -94 30 0 30 0 0 80 c0 77 1
80 23 80 37 0 47 -19 47 -92 0 -66 1 -68 25 -68 25 0 25 1 25 80 l0 80 28 0
c43 0 52 -17 52 -92 0 -66 1 -68 25 -68 25 0 25 1 25 80 0 67 -3 82 -21 98
-25 24 -68 34 -106 23 -15 -4 -39 -4 -53 0 -35 10 -70 9 -102 -3z"/>
<path d="M2228 1343 c-16 -4 -18 -20 -18 -149 l0 -144 25 0 c23 0 25 4 25 43
l0 42 46 0 c39 0 50 5 75 33 49 54 36 137 -26 167 -31 14 -89 18 -127 8z m110
-55 c16 -16 16 -80 0 -96 -7 -7 -27 -12 -45 -12 l-33 0 0 60 0 60 33 0 c18 0
38 -5 45 -12z"/>
<path d="M2494 1341 c-12 -5 -29 -20 -38 -33 -20 -29 -21 -107 -1 -135 32 -46
155 -52 163 -9 3 16 -1 17 -37 11 -31 -5 -48 -3 -66 9 -41 27 -29 36 46 36
l72 0 -6 41 c-3 23 -14 50 -24 61 -22 22 -79 32 -109 19z m84 -63 c3 -15 -4
-18 -42 -18 -25 0 -46 4 -46 8 0 34 82 42 88 10z"/>
<path d="M2693 1340 c-25 -10 -38 -48 -28 -79 3 -11 21 -25 43 -32 53 -17 65
-28 50 -46 -9 -11 -23 -13 -56 -8 -38 6 -43 4 -40 -11 6 -35 100 -41 133 -7
18 18 20 67 3 80 -7 6 -30 16 -51 23 -27 8 -37 17 -35 28 3 13 14 17 46 15 35
-1 42 1 42 16 0 28 -60 40 -107 21z"/>
<path d="M2893 1334 c-96 -49 -69 -200 35 -196 20 1 54 1 75 1 l37 1 0 94 c0
52 -4 98 -10 101 -25 15 -106 15 -137 -1z m85 -91 c-3 -56 -4 -58 -33 -61 -33
-4 -55 18 -55 57 0 34 27 61 62 61 29 0 29 0 26 -57z"/>
<path d="M2070 1245 c0 -24 3 -25 55 -25 52 0 55 1 55 25 0 24 -3 25 -55 25
-52 0 -55 -1 -55 -25z"/>
</g>
</svg>
